<?xml version="1.0" encoding="UTF-8" standalone="no"?>
<svg
   xmlns:dc="http://purl.org/dc/elements/1.1/"
   xmlns:cc="http://creativecommons.org/ns#"
   xmlns:rdf="http://www.w3.org/1999/02/22-rdf-syntax-ns#"
   xmlns:svg="http://www.w3.org/2000/svg"
   xmlns="http://www.w3.org/2000/svg"
   xmlns:sodipodi="http://sodipodi.sourceforge.net/DTD/sodipodi-0.dtd"
   xmlns:inkscape="http://www.inkscape.org/namespaces/inkscape"
   version="1.1"
   id="svg2"
   width="266.66666"
   height="266.66666"
   viewBox="0 0 266.66666 266.66666"
   sodipodi:docname="arrows.svg"
   inkscape:version="1.0.2 (e86c870879, 2021-01-15, custom)">
  <metadata
     id="metadata8">
    <rdf:RDF>
      <cc:Work
         rdf:about="">
        <dc:format>image/svg+xml</dc:format>
        <dc:type
           rdf:resource="http://purl.org/dc/dcmitype/StillImage" />
        <dc:title></dc:title>
      </cc:Work>
    </rdf:RDF>
  </metadata>
  <defs
     id="defs6" />
  <sodipodi:namedview
     pagecolor="#000000"
     bordercolor="#666666"
     borderopacity="1"
     objecttolerance="10"
     gridtolerance="10"
     guidetolerance="10"
     inkscape:pageopacity="0"
     inkscape:pageshadow="2"
     inkscape:window-width="1410"
     inkscape:window-height="884"
     id="namedview4"
     showgrid="false"
     inkscape:zoom="0.79687503"
     inkscape:cx="205.41045"
     inkscape:cy="188.07185"
     inkscape:window-x="293"
     inkscape:window-y="48"
     inkscape:window-maximized="0"
     inkscape:current-layer="g10" />
  <g
     inkscape:groupmode="layer"
     inkscape:label="Image"
     id="g10">
    <path
       style="fill:#ffffff;stroke-width:1.48105"
       d="M 10.358083,209.04223 C 4.1489563,205.24595 2.2065291,202.51451 1.168907,196.12041 l -0.90005066,-5.54636 5.29812386,5.78447 5.2981218,5.78447 31.133053,0.45266 c 34.676383,0.5042 37.642314,-0.11418 43.358116,-9.0406 l 3.036123,-4.74153 -0.812343,5.7106 c -0.446781,3.14081 -1.894353,7.36195 -3.216815,9.38029 -4.456577,6.8016 -10.008916,7.8659 -41.004141,7.85989 -25.088957,-0.004 -29.097552,-0.33551 -33.001012,-2.72207 z m 90.178537,-0.16385 c -4.640261,-1.9359 -9.461135,-8.79015 -9.461135,-13.45175 v -4.09532 l 5.035575,5.03558 5.03558,5.03558 h 32.87938 32.87938 l 5.03557,-5.03558 5.0356,-5.03558 v 4.27168 c 0,2.6259 -1.66402,6.13522 -4.31893,9.10848 l -4.31892,4.83679 -32.33715,0.31751 c -17.78542,0.17463 -33.74466,-0.2697 -35.46495,-0.98739 z m 87.92649,-1.18853 c -4.54331,-2.817 -8.5552,-10.11435 -8.46514,-15.39753 l 0.0592,-3.4788 2.09841,3.86072 c 4.49215,8.26477 6.69678,8.72823 41.51932,8.72823 19.77532,0 33.11634,-0.60168 34.9361,-1.57558 1.61921,-0.86655 4.23879,-3.69907 5.82132,-6.29447 l 2.87734,-4.7189 0.005,4.14644 c 0.007,5.96622 -3.80932,12.48469 -8.8323,15.08217 -6.74805,3.48955 -64.29058,3.20005 -70.01986,-0.35228 z M 10.092959,196.05101 c -7.9348272,-3.91314 -9.36171425,-9.1924 -9.36171425,-34.63697 0,-36.67087 0.43425205,-37.0368 43.91490025,-37.00449 31.662754,0.0235 34.166897,0.52006 39.62183,7.85672 2.798435,3.76381 3.15079,6.5421 3.570124,28.15031 0.447948,23.08319 0.336191,24.16586 -3.006565,29.12618 -5.66636,8.40832 -7.708548,8.85517 -40.409225,8.84205 -23.891524,-0.008 -30.531781,-0.46103 -34.32935,-2.3338 z m 46.918299,-36.85855 c 0,-7.73851 -0.361051,-14.07001 -0.802346,-14.07001 -1.663775,0 -23.068873,13.08108 -23.094644,14.11359 -0.02833,1.13411 20.866332,13.98082 22.7862,14.00972 0.610934,0.008 1.11079,-6.3148 1.11079,-14.0533 z m 45.046502,37.14273 c -2.51283,-1.0941 -6.011802,-3.82379 -7.775525,-6.06599 -3.00843,-3.82458 -3.20675,-5.66589 -3.20675,-29.77205 v -25.69534 l 4.150521,-4.64524 4.150516,-4.64524 -4.150516,-4.15052 c -2.687688,-2.68769 -4.150521,-5.70444 -4.150521,-8.5595 v -4.40898 l 5.035575,5.03558 5.03558,5.03558 h 32.87938 32.87938 l 5.03557,-5.03558 c 4.25775,-4.25774 5.0356,-4.58955 5.0356,-2.14803 0,4.20725 -3.91734,11.10648 -6.98023,12.2936 -2.35565,0.913 -2.39492,1.21769 -0.35707,2.77132 6.73671,5.13603 7.3373,7.95659 7.3373,34.45852 0,23.802 -0.20072,25.64432 -3.21079,29.47099 -5.66765,7.20525 -10.44193,8.17151 -40.06245,8.1081 -19.29621,-0.0413 -28.38965,-0.62959 -31.64557,-2.04722 z m 39.86275,-38.07098 c 3.86886,-6.61989 6.76033,-12.3101 6.42553,-12.6449 -0.3348,-0.3348 -7.00565,-0.41695 -14.82413,-0.18254 l -14.21538,0.42621 6.89536,12.21869 c 3.79245,6.72028 7.29789,12.21869 7.78985,12.21869 0.49198,0 4.05991,-5.41627 7.92877,-12.03615 z m 50.0053,38.24125 c -9.79046,-3.43053 -11.18556,-7.30658 -11.73461,-32.60233 -0.57092,-26.30453 0.69619,-32.40685 7.60367,-36.61862 4.3032,-2.62382 7.62643,-2.88624 36.6161,-2.89127 43.61814,-0.007 42.90983,-0.61384 42.90983,36.72823 0,22.07354 -0.21232,23.86716 -3.38367,28.58382 -5.0411,7.49754 -10.07651,8.5679 -40.3074,8.5679 -16.84955,0 -28.51529,-0.65046 -31.70392,-1.76773 z m 39.47945,-34.69308 c 2.64739,-1.33541 4.81343,-2.8476 4.81343,-3.36045 0,-0.51284 -2.16604,-2.02505 -4.81343,-3.36045 -2.64738,-1.33542 -8.31241,-4.51302 -12.58895,-7.06131 l -7.77553,-4.63328 v 15.05504 15.05504 l 7.77553,-4.63328 c 4.27654,-2.54831 9.94157,-5.72589 12.58895,-7.06131 z M 100.53662,112.60991 c -1.720293,-0.71768 -4.552811,-3.11648 -6.29447,-5.33065 -2.951372,-3.75207 -3.166665,-5.72893 -3.166665,-29.077482 0,-38.386143 -0.171195,-38.234099 43.049385,-38.234099 42.90668,0 42.8517,-0.04929 42.8517,38.410466 v 25.228085 l -4.31893,4.83679 -4.31892,4.83679 -32.33715,0.31752 c -17.78542,0.17462 -33.74466,-0.26971 -35.46495,-0.98742 z m 48.05309,-24.9959 c -1.55451,-3.868016 -13.76604,-23.949482 -14.56369,-23.949482 -0.79765,0 -13.0092,20.081466 -14.56369,23.949482 -0.27153,0.675633 6.28212,1.228421 14.56369,1.228421 8.28156,0 14.83522,-0.552788 14.56369,-1.228421 z"
       id="path14-7" />
  </g>
</svg>
