<?xml version="1.0" encoding="UTF-8" standalone="no"?>
<svg
   xmlns:dc="http://purl.org/dc/elements/1.1/"
   xmlns:cc="http://creativecommons.org/ns#"
   xmlns:rdf="http://www.w3.org/1999/02/22-rdf-syntax-ns#"
   xmlns:svg="http://www.w3.org/2000/svg"
   xmlns="http://www.w3.org/2000/svg"
   xmlns:sodipodi="http://sodipodi.sourceforge.net/DTD/sodipodi-0.dtd"
   xmlns:inkscape="http://www.inkscape.org/namespaces/inkscape"
   version="1.1"
   width="512"
   height="512"
   x="0"
   y="0"
   viewBox="0 0 512 512"
   style="enable-background:new 0 0 512 512"
   xml:space="preserve"
   class=""
   id="svg40"
   sodipodi:docname="hpUp.svg"
   inkscape:version="1.0.2 (e86c870879, 2021-01-15, custom)"><metadata
     id="metadata46"><rdf:RDF><cc:Work
         rdf:about=""><dc:format>image/svg+xml</dc:format><dc:type
           rdf:resource="http://purl.org/dc/dcmitype/StillImage" /><dc:title></dc:title></cc:Work></rdf:RDF></metadata><defs
     id="defs44" /><sodipodi:namedview
     pagecolor="#000000"
     bordercolor="#666666"
     borderopacity="1"
     objecttolerance="10"
     gridtolerance="10"
     guidetolerance="10"
     inkscape:pageopacity="0"
     inkscape:pageshadow="2"
     inkscape:window-width="1427"
     inkscape:window-height="1041"
     id="namedview42"
     showgrid="false"
     inkscape:zoom="0.24609375"
     inkscape:cx="523.09272"
     inkscape:cy="209.77251"
     inkscape:window-x="121"
     inkscape:window-y="8"
     inkscape:window-maximized="0"
     inkscape:current-layer="svg40"
     inkscape:document-rotation="0" /><path
     d="M 317.90931,125.5905 H 259.39547 V 67.075319 c 0,-4.036634 -3.27726,-7.313898 -7.31524,-7.313898 -4.03663,0 -7.31389,3.277264 -7.31389,7.313898 V 125.5905 h -58.51518 c -4.03664,0 -7.3139,3.27725 -7.3139,7.31388 0,4.03799 3.27726,7.31524 7.3139,7.31524 h 58.51518 v 58.51384 c 0,4.03798 3.27726,7.31524 7.31389,7.31524 4.03798,0 7.31524,-3.27726 7.31524,-7.31524 v -58.51384 h 58.51384 c 4.03798,0 7.31524,-3.27725 7.31524,-7.31524 0,-4.03663 -3.27726,-7.31388 -7.31524,-7.31388 z m 0,0"
     fill="#ffffff"
     data-original="#000000"
     id="path403"
     style="stroke-width:0.34286" /><g
     id="g71"
     transform="matrix(0.6788367,0,0,0.6788367,109.50708,225.29829)">
<g
   id="g39">
	<g
   id="g37">
		<path
   d="m 295.706,35.522 c 0,0 0,0 0,0 -34.43,-0.184 -67.161,14.937 -89.339,41.273 C 184.328,50.279 151.506,35.115 117.028,35.522 52.395,35.522 0,87.917 0,152.55 c 0,110.76 193.306,218.906 201.143,223.086 3.162,2.113 7.286,2.113 10.449,0 7.837,-4.18 201.143,-110.759 201.143,-223.086 0,-64.633 -52.396,-117.028 -117.029,-117.028 z"
   fill="#ffffff"
   data-original="#000000"
   id="path35" />
	</g>
</g>
<g
   id="g41">
</g>
<g
   id="g43">
</g>
<g
   id="g45">
</g>
<g
   id="g47">
</g>
<g
   id="g49">
</g>
<g
   id="g51">
</g>
<g
   id="g53">
</g>
<g
   id="g55">
</g>
<g
   id="g57">
</g>
<g
   id="g59">
</g>
<g
   id="g61">
</g>
<g
   id="g63">
</g>
<g
   id="g65">
</g>
<g
   id="g67">
</g>
<g
   id="g69">
</g>
</g></svg>
