<?xml version="1.0" encoding="UTF-8" standalone="no"?>
<svg
   xmlns:dc="http://purl.org/dc/elements/1.1/"
   xmlns:cc="http://creativecommons.org/ns#"
   xmlns:rdf="http://www.w3.org/1999/02/22-rdf-syntax-ns#"
   xmlns:svg="http://www.w3.org/2000/svg"
   xmlns="http://www.w3.org/2000/svg"
   xmlns:sodipodi="http://sodipodi.sourceforge.net/DTD/sodipodi-0.dtd"
   xmlns:inkscape="http://www.inkscape.org/namespaces/inkscape"
   version="1.1"
   width="512"
   height="512"
   x="0"
   y="0"
   viewBox="0 0 512 512"
   style="enable-background:new 0 0 512 512"
   xml:space="preserve"
   class=""
   id="svg40"
   sodipodi:docname="sizeDown.svg"
   inkscape:version="1.0.1 (3bc2e813f5, 2020-09-07)"><metadata
     id="metadata46"><rdf:RDF><cc:Work
         rdf:about=""><dc:format>image/svg+xml</dc:format><dc:type
           rdf:resource="http://purl.org/dc/dcmitype/StillImage" /><dc:title></dc:title></cc:Work></rdf:RDF></metadata><defs
     id="defs44" /><sodipodi:namedview
     pagecolor="#000000"
     bordercolor="#666666"
     borderopacity="1"
     objecttolerance="10"
     gridtolerance="10"
     guidetolerance="10"
     inkscape:pageopacity="0"
     inkscape:pageshadow="2"
     inkscape:window-width="1706"
     inkscape:window-height="1148"
     id="namedview42"
     showgrid="false"
     inkscape:zoom="0.34802912"
     inkscape:cx="-893.87952"
     inkscape:cy="666.25092"
     inkscape:window-x="392"
     inkscape:window-y="175"
     inkscape:window-maximized="0"
     inkscape:current-layer="svg40"
     inkscape:document-rotation="0" /><path
     d="m 253.39025,488.74785 c 76.01838,0 137.86014,-61.84175 137.86014,-137.86012 0,-76.01838 -61.84176,-137.86012 -137.86014,-137.86012 -76.01837,0 -137.86012,61.84174 -137.86012,137.86012 0,76.01837 61.84175,137.86012 137.86012,137.86012 z m 57.44172,-194.5551 c 12.67164,0 22.97669,10.30504 22.97669,22.97668 0,12.67164 -10.30505,22.97669 -22.97669,22.97669 -12.67164,0 -22.97669,-10.30505 -22.97669,-22.97669 0,-12.67164 10.30505,-22.97668 22.97669,-22.97668 z m -114.88344,0 c 12.67164,0 22.97669,10.30504 22.97669,22.97668 0,12.67164 -10.30505,22.97669 -22.97669,22.97669 -12.67164,0 -22.97668,-10.30505 -22.97668,-22.97669 0,-12.67164 10.30504,-22.97668 22.97668,-22.97668 z m -38.5319,83.17561 c 1.63134,-2.20577 4.20473,-3.50394 6.93896,-3.50394 h 178.06932 c 2.73423,0 5.30762,1.29817 6.93897,3.50394 1.61986,2.20575 2.10236,5.04338 1.2867,7.66272 -13.32648,42.93194 -52.40983,71.77917 -97.26033,71.77917 -44.85049,0 -83.94533,-28.84723 -97.26031,-71.77917 -0.81568,-2.60785 -0.33317,-5.45697 1.28669,-7.66272 z"
     fill="#ffffff"
     data-original="#000000"
     id="path172"
     style="stroke-width:11.4883" /><g
     id="g222"
     transform="matrix(0.33525801,0,0,0.35154135,184.57757,63.536217)">
<g
   id="g190">
	<g
   id="g188">
		<path
   d="M 392.533,187.733 H 17.067 C 7.641,187.733 0,195.374 0,204.8 c 0,9.426 7.641,17.067 17.067,17.067 h 375.467 c 9.426,0 17.067,-7.641 17.067,-17.067 0,-9.426 -7.642,-17.067 -17.068,-17.067 z"
   fill="#ffffff"
   data-original="#000000"
   class=""
   id="path186" />
	</g>
</g>
<g
   id="g192">
</g>
<g
   id="g194">
</g>
<g
   id="g196">
</g>
<g
   id="g198">
</g>
<g
   id="g200">
</g>
<g
   id="g202">
</g>
<g
   id="g204">
</g>
<g
   id="g206">
</g>
<g
   id="g208">
</g>
<g
   id="g210">
</g>
<g
   id="g212">
</g>
<g
   id="g214">
</g>
<g
   id="g216">
</g>
<g
   id="g218">
</g>
<g
   id="g220">
</g>
</g></svg>
