<?xml version="1.0" encoding="UTF-8" standalone="no"?>
<svg
   xmlns:dc="http://purl.org/dc/elements/1.1/"
   xmlns:cc="http://creativecommons.org/ns#"
   xmlns:rdf="http://www.w3.org/1999/02/22-rdf-syntax-ns#"
   xmlns:svg="http://www.w3.org/2000/svg"
   xmlns="http://www.w3.org/2000/svg"
   xmlns:sodipodi="http://sodipodi.sourceforge.net/DTD/sodipodi-0.dtd"
   xmlns:inkscape="http://www.inkscape.org/namespaces/inkscape"
   version="1.1"
   width="512"
   height="512"
   x="0"
   y="0"
   viewBox="0 0 512 512"
   style="enable-background:new 0 0 512 512"
   xml:space="preserve"
   class=""
   id="svg40"
   sodipodi:docname="speedUp.svg"
   inkscape:version="1.0.2 (e86c870879, 2021-01-15, custom)"><metadata
     id="metadata46"><rdf:RDF><cc:Work
         rdf:about=""><dc:format>image/svg+xml</dc:format><dc:type
           rdf:resource="http://purl.org/dc/dcmitype/StillImage" /><dc:title></dc:title></cc:Work></rdf:RDF></metadata><defs
     id="defs44" /><sodipodi:namedview
     pagecolor="#000000"
     bordercolor="#666666"
     borderopacity="1"
     objecttolerance="10"
     gridtolerance="10"
     guidetolerance="10"
     inkscape:pageopacity="0"
     inkscape:pageshadow="2"
     inkscape:window-width="1427"
     inkscape:window-height="1041"
     id="namedview42"
     showgrid="false"
     inkscape:zoom="0.34802912"
     inkscape:cx="75.501172"
     inkscape:cy="462.87033"
     inkscape:window-x="271"
     inkscape:window-y="226"
     inkscape:window-maximized="0"
     inkscape:current-layer="svg40"
     inkscape:document-rotation="0" /><path
     d="M 317.90931,125.5905 H 259.39547 V 67.075319 c 0,-4.036634 -3.27726,-7.313898 -7.31524,-7.313898 -4.03663,0 -7.31389,3.277264 -7.31389,7.313898 V 125.5905 h -58.51518 c -4.03664,0 -7.3139,3.27725 -7.3139,7.31388 0,4.03799 3.27726,7.31524 7.3139,7.31524 h 58.51518 v 58.51384 c 0,4.03798 3.27726,7.31524 7.31389,7.31524 4.03798,0 7.31524,-3.27726 7.31524,-7.31524 v -58.51384 h 58.51384 c 4.03798,0 7.31524,-3.27725 7.31524,-7.31524 0,-4.03663 -3.27726,-7.31388 -7.31524,-7.31388 z m 0,0"
     fill="#ffffff"
     data-original="#000000"
     id="path403"
     style="stroke-width:0.34286" /><g
     id="g43"
     transform="matrix(0.55946125,0,0,0.55946125,116.16793,201.28998)"><path
       d="m 512,429.71484 c 0,-30.26172 -22.49219,-64 -54.85547,-64 -14.21094,-0.16015 -28.30469,2.57813 -41.41797,8.04688 -0.0508,0.0469 -0.11328,0.0781 -0.18359,0.0898 -9.84766,5.44531 -17.96094,13.5586 -23.40625,23.40625 -1.51563,3.10156 -4.68359,5.0586 -8.13672,5.02735 -1.43359,0.0156 -2.84766,-0.32813 -4.11328,-1.00391 -2.16797,-1.08594 -3.80859,-2.98828 -4.56641,-5.28906 -0.7539,-2.30078 -0.55859,-4.8086 0.54297,-6.96485 5.26563,-9.77734 12.51953,-18.34375 21.30078,-25.14062 -64,-73.05078 -49.1875,-174.8125 -45.4375,-195.10938 0.55469,-2.95312 -0.36718,-5.98828 -2.46875,-8.13671 l -56.23047,-56.41016 c -4.11328,-4.20703 -10.60546,-1.55469 -12.52343,-0.64063 l -1.3711,0.64063 C 249.14453,118.76563 208,138.69531 176.36719,107.0625 145.92188,76.617188 140.16016,46.628906 159.08594,17.921875 c 2.48828,-3.773437 1.99219,-8.769531 -1.1875,-11.980469 L 154.69531,2.652344 C 152.98047,0.984375 150.69141,0.0351562 148.29688,0 c -2.39844,0.0195312 -4.69141,0.96875 -6.39844,2.652344 L 34.195312,110.8125 l -0.367187,0.36328 c -0.222656,0.375 -0.5,0.71485 -0.824219,1.00781 -7.039062,7.09766 -7.398437,18.4336 -0.820312,25.96485 50.195312,56.86719 254.902346,280.5039 338.558596,335.63281 19.4375,13.72266 39.57812,26.41797 60.34375,38.03516 C 490.51563,509.53125 512,487.13281 512,429.71484 Z M 320,228.57031 c -5.05078,0 -9.14453,-4.09375 -9.14453,-9.14062 0,-5.05078 4.09375,-9.14453 9.14453,-9.14453 5.05078,0 9.14453,4.09375 9.14453,9.14453 0,5.04687 -4.09375,9.14062 -9.14453,9.14062 z m 0,-45.71484 c -5.05078,0 -9.14453,-4.08984 -9.14453,-9.14063 0,-5.05078 4.09375,-9.14453 9.14453,-9.14453 5.05078,0 9.14453,4.09375 9.14453,9.14453 0,5.05079 -4.09375,9.14063 -9.14453,9.14063 z m 0,0"
       fill="#ffffff"
       data-original="#000000"
       id="path35" /><path
       d="M 360.32031,488.86719 C 275.38281,432.82422 69.027344,207.45312 18.46875,150.21875 c -3.898438,-4.39844 -6.6875,-9.66797 -8.136719,-15.36328 l -4.753906,4.75781 c -3.992187,3.94922 -5.972656,9.49609 -5.394531,15.08203 v 0.0937 c 0.304687,4 1.910156,7.78906 4.570312,10.78906 C 108.07031,282.60547 327.3125,512 365.71484,512 h 29.80469 c -21.02734,-12.98438 -34.375,-22.58203 -35.19922,-23.13281 z m 0,0"
       fill="#ffffff"
       data-original="#000000"
       id="path37" /><path
       d="m 146.28516,457.14453 c 0,-5.05078 -4.09375,-9.14453 -9.14063,-9.14453 H 64 c -5.050781,0 -9.144531,4.09375 -9.144531,9.14453 0,5.04688 4.09375,9.14063 9.144531,9.14063 h 73.14453 c 5.04688,0 9.14063,-4.09375 9.14063,-9.14063 z m 0,0"
       fill="#ffffff"
       data-original="#000000"
       id="path39" /><path
       d="m 9.144531,429.71484 h 73.140625 c 5.050782,0 9.144532,-4.09375 9.144532,-9.14453 0,-5.04687 -4.09375,-9.14062 -9.144532,-9.14062 H 9.144531 C 4.09375,411.42969 0,415.52344 0,420.57031 c 0,5.05078 4.09375,9.14453 9.144531,9.14453 z m 0,0"
       fill="#ffffff"
       data-original="#000000"
       id="path41" /></g></svg>
