<?xml version="1.0" encoding="UTF-8" standalone="no"?>
<svg
   xmlns:dc="http://purl.org/dc/elements/1.1/"
   xmlns:cc="http://creativecommons.org/ns#"
   xmlns:rdf="http://www.w3.org/1999/02/22-rdf-syntax-ns#"
   xmlns:svg="http://www.w3.org/2000/svg"
   xmlns="http://www.w3.org/2000/svg"
   xmlns:sodipodi="http://sodipodi.sourceforge.net/DTD/sodipodi-0.dtd"
   xmlns:inkscape="http://www.inkscape.org/namespaces/inkscape"
   version="1.1"
   width="512"
   height="512"
   x="0"
   y="0"
   viewBox="0 0 512 512"
   style="enable-background:new 0 0 512 512"
   xml:space="preserve"
   class=""
   id="svg40"
   sodipodi:docname="speed.svg"
   inkscape:version="1.0.1 (3bc2e813f5, 2020-09-07)"><metadata
     id="metadata46"><rdf:RDF><cc:Work
         rdf:about=""><dc:format>image/svg+xml</dc:format><dc:type
           rdf:resource="http://purl.org/dc/dcmitype/StillImage" /><dc:title /></cc:Work></rdf:RDF></metadata><defs
     id="defs44" /><sodipodi:namedview
     pagecolor="#000000"
     bordercolor="#666666"
     borderopacity="1"
     objecttolerance="10"
     gridtolerance="10"
     guidetolerance="10"
     inkscape:pageopacity="0"
     inkscape:pageshadow="2"
     inkscape:window-width="1427"
     inkscape:window-height="1041"
     id="namedview42"
     showgrid="false"
     inkscape:zoom="0.69605824"
     inkscape:cx="218.89057"
     inkscape:cy="269.8628"
     inkscape:window-x="271"
     inkscape:window-y="226"
     inkscape:window-maximized="0"
     inkscape:current-layer="g43"
     inkscape:document-rotation="0" /><g
     id="g43"
     transform="matrix(0.78393958,0,0,0.78393958,58.701474,61.933825)"
     style="fill:#ffffff"><path
       d="m 524.82833,427.71862 c 0,-31.66983 -23.53878,-66.978 -57.40797,-66.978 -14.87219,-0.1676 -29.62174,2.69809 -43.3452,8.42131 -0.0532,0.0491 -0.11855,0.0817 -0.19213,0.094 -10.30589,5.69869 -18.79669,14.1895 -24.49538,24.49537 -1.58615,3.24588 -4.90152,5.29399 -8.51533,5.26128 -1.5003,0.0163 -2.98016,-0.34339 -4.30468,-1.05062 -2.26884,-1.13647 -3.9858,-3.12733 -4.77889,-5.53517 -0.78898,-2.40783 -0.58458,-5.03235 0.56824,-7.28893 5.51065,-10.23229 13.10208,-19.19731 22.29193,-26.31045 -66.978,-76.44992 -51.47626,-182.94675 -47.55176,-204.18807 0.5805,-3.09053 -0.38427,-6.26692 -2.58363,-8.51532 L 295.66658,87.089017 c -4.30467,-4.402788 -11.09894,-1.627031 -13.10616,-0.670439 l -1.4349,0.670439 c -31.38367,15.211543 -74.44271,36.068583 -107.54743,2.96385 -31.86197,-31.861972 -37.8918,-63.245648 -18.08537,-93.2884538 2.60406,-3.9490199 2.08489,-9.1775892 -1.24276,-12.5379362 l -3.35218,-3.442106 c -1.79463,-1.745582 -4.1902,-2.738969 -6.69615,-2.775761 -2.51005,0.02044 -4.90971,1.013827 -6.69617,2.775761 L 24.790759,93.97734 24.406487,94.357524 c -0.233017,0.392449 -0.523266,0.748112 -0.862571,1.054704 -7.366599,7.427922 -7.742696,19.291342 -0.858482,27.173032 52.530965,59.51329 266.763286,293.55611 354.312176,351.25024 20.34195,14.36119 41.41974,27.64723 63.15162,39.80499 62.19503,-2.39149 84.6791,-25.83216 84.6791,-85.92187 z M 323.89432,217.21458 c -5.2858,0 -9.57004,-4.28424 -9.57004,-9.56595 0,-5.2858 4.28424,-9.57003 9.57004,-9.57003 5.2858,0 9.57003,4.28423 9.57003,9.57003 0,5.28171 -4.28423,9.56595 -9.57003,9.56595 z m 0,-47.84201 c -5.2858,0 -9.57004,-4.28015 -9.57004,-9.56596 0,-5.2858 4.28424,-9.57004 9.57004,-9.57004 5.2858,0 9.57003,4.28424 9.57003,9.57004 0,5.28581 -4.28423,9.56596 -9.57003,9.56596 z m 0,0"
       fill="#ffffff"
       data-original="#000000"
       id="path35"
       style="fill:#000000;stroke-width:1.04653" /><path
       d="M 366.09078,489.62341 C 277.20103,430.97269 61.243571,195.11478 8.33242,135.21722 4.252583,130.61411 1.333742,125.09938 -0.18291099,119.13906 l -4.97511161,4.9792 c -4.1779486,4.13298 -6.2505714,9.93796 -5.6455454,15.78382 v 0.0981 c 0.318864,4.18612 1.9990379,8.15149 4.7829744,11.29109 C 102.10326,273.76406 331.54708,513.83262 371.73633,513.83262 h 31.19154 c -22.00577,-13.58856 -35.97451,-23.6328 -36.83709,-24.20921 z m 0,0"
       fill="#ffffff"
       data-original="#000000"
       id="path37"
       style="fill:#000000;stroke-width:1.04653" /><path
       d="m 142.0963,456.42465 c 0,-5.2858 -4.28424,-9.57003 -9.56596,-9.57003 H 55.982298 c -5.2858,0 -9.570038,4.28423 -9.570038,9.57003 0,5.28172 4.284238,9.56596 9.570038,9.56596 h 76.548042 c 5.28172,0 9.56596,-4.28424 9.56596,-9.56596 z m 0,0"
       fill="#ffffff"
       data-original="#000000"
       id="path39"
       style="fill:#000000;stroke-width:1.04653" /><path
       d="M -1.4256671,427.71862 H 75.118287 c 5.285801,0 9.570039,-4.28423 9.570039,-9.57003 0,-5.28171 -4.284238,-9.56595 -9.570039,-9.56595 H -1.4256671 c -5.2858004,0 -9.5700379,4.28424 -9.5700379,9.56595 0,5.2858 4.2842375,9.57003 9.5700379,9.57003 z m 0,0"
       fill="#ffffff"
       data-original="#000000"
       id="path41"
       style="fill:#000000;stroke-width:1.04653" /></g></svg>
