<?xml version="1.0" encoding="UTF-8" standalone="no"?>
<svg
   xmlns:dc="http://purl.org/dc/elements/1.1/"
   xmlns:cc="http://creativecommons.org/ns#"
   xmlns:rdf="http://www.w3.org/1999/02/22-rdf-syntax-ns#"
   xmlns:svg="http://www.w3.org/2000/svg"
   xmlns="http://www.w3.org/2000/svg"
   xmlns:sodipodi="http://sodipodi.sourceforge.net/DTD/sodipodi-0.dtd"
   xmlns:inkscape="http://www.inkscape.org/namespaces/inkscape"
   version="1.1"
   id="svg2"
   width="266.66666"
   height="266.66666"
   viewBox="0 0 266.66666 266.66666"
   sodipodi:docname="wasd.svg"
   inkscape:version="1.0.2 (e86c870879, 2021-01-15, custom)">
  <metadata
     id="metadata8">
    <rdf:RDF>
      <cc:Work
         rdf:about="">
        <dc:format>image/svg+xml</dc:format>
        <dc:type
           rdf:resource="http://purl.org/dc/dcmitype/StillImage" />
        <dc:title />
      </cc:Work>
    </rdf:RDF>
  </metadata>
  <defs
     id="defs6" />
  <sodipodi:namedview
     pagecolor="#000000"
     bordercolor="#666666"
     borderopacity="1"
     objecttolerance="10"
     gridtolerance="10"
     guidetolerance="10"
     inkscape:pageopacity="0"
     inkscape:pageshadow="2"
     inkscape:window-width="1410"
     inkscape:window-height="884"
     id="namedview4"
     showgrid="false"
     inkscape:zoom="1.1269515"
     inkscape:cx="143.10768"
     inkscape:cy="129.84184"
     inkscape:window-x="293"
     inkscape:window-y="48"
     inkscape:window-maximized="0"
     inkscape:current-layer="g10"
     inkscape:document-rotation="0" />
  <g
     inkscape:groupmode="layer"
     inkscape:label="Image"
     id="g10">
    <path
       style="fill:#ffffff;stroke-width:1.4734"
       d="m 9.1598094,206.7377 c -6.2254615,-3.74733 -8.17299531,-6.44353 -9.21334548,-12.75518 l -0.90241709,-5.47484 5.31205237,5.70988 5.3120515,5.70989 31.2149023,0.44683 c 34.767549,0.49768 37.741278,-0.11271 43.472119,-8.92405 l 3.044104,-4.68037 -0.814479,5.63694 c -0.447967,3.10033 -1.899343,7.26703 -3.225282,9.25935 -4.468294,6.71389 -10.035231,7.76447 -41.111944,7.75854 -25.154916,-0.005 -29.174051,-0.33121 -33.0877616,-2.68699 z m 90.4156166,-0.16172 c -4.652469,-1.91095 -9.486017,-8.67681 -9.486017,-13.27829 v -4.04252 l 5.048817,4.97065 5.048834,4.97065 h 32.96581 32.96582 l 5.04881,-4.97065 5.04882,-4.97065 v 4.21661 c 0,2.59204 -1.66838,6.0561 -4.33029,8.99102 l -4.33025,4.77442 -32.42218,0.31341 c -17.83218,0.17238 -33.83335,-0.26622 -35.558174,-0.97465 z m 88.157644,-1.17322 c -4.55526,-2.78066 -8.57769,-9.98391 -8.48739,-15.19896 l 0.0594,-3.43394 2.10393,3.81092 c 4.50395,8.1582 6.71439,8.61569 41.62848,8.61569 19.82731,0 33.20339,-0.59391 35.02794,-1.55527 1.62347,-0.85537 4.24993,-3.65136 5.83661,-6.2133 l 2.88489,-4.65804 0.006,4.09297 c 0.008,5.88928 -3.81934,12.32371 -8.85551,14.88768 -6.76578,3.44456 -64.45961,3.15877 -70.20394,-0.34775 z M 8.8939782,193.914 c -7.95568846,-3.86266 -9.38632725,-9.07383 -9.38632725,-34.19031 0,-36.19798 0.4353939,-36.55918 44.03035405,-36.5273 31.745998,0.0232 34.256724,0.51337 39.725998,7.75542 2.805792,3.71527 3.159083,6.45773 3.57951,27.7873 0.449136,22.78551 0.337075,23.85423 -3.014469,28.75058 -5.681258,8.29989 -7.728815,8.74098 -40.515463,8.72803 -23.954337,-0.009 -30.61204,-0.45509 -34.4196028,-2.30372 z M 38.116263,172.88129 v -7.30978 h 5.939796 5.939783 v 7.30978 7.30976 h 7.424739 7.424727 V 162.6476 c 0,-14.61954 -0.371233,-17.54345 -2.227421,-17.54345 -1.225081,0 -2.227419,-0.65788 -2.227419,-1.46196 0,-2.46285 -33.941277,-1.88 -36.487263,0.62656 -1.594076,1.56938 -2.121351,6.29336 -2.121351,19.00539 v 16.91691 h 8.167204 8.167205 z m 0,-19.73639 c 0,-3.2894 0.593987,-3.65487 5.939796,-3.65487 5.345809,0 5.939783,0.36547 5.939783,3.65487 0,3.2894 -0.593974,3.65488 -5.939783,3.65488 -5.345809,0 -5.939796,-0.36548 -5.939796,-3.65488 z m 62.984297,41.04962 c -2.519417,-1.07997 -6.02761,-3.77447 -7.795958,-5.98775 -3.01634,-3.77528 -3.215193,-5.59283 -3.215193,-29.38813 v -25.364 l 4.161434,-4.58532 4.161431,-4.58534 -4.161431,-4.09701 c -2.694744,-2.65303 -4.161434,-5.63088 -4.161434,-8.44912 v -4.35213 l 5.048817,4.97065 5.048834,4.97064 h 32.96581 32.96582 l 5.04881,-4.97064 c 4.26895,-4.20284 5.04882,-4.53037 5.04882,-2.12032 0,4.153 -3.92762,10.96325 -6.99856,12.13506 -2.36186,0.90123 -2.40122,1.20197 -0.35803,2.73558 6.75443,5.06981 7.35659,7.85398 7.35659,34.01417 0,23.49506 -0.20123,25.31363 -3.21921,29.09096 -5.68256,7.11232 -10.46938,8.06613 -40.16778,8.00352 -19.34695,-0.0408 -28.46428,-0.62146 -31.72877,-2.02082 z m 52.54458,-15.75781 c 2.77906,-2.73603 2.2423,-16.68829 -0.77551,-20.15826 -2.09125,-2.40458 -4.37614,-2.94062 -12.5344,-2.94062 -10.46568,0 -12.43779,-1.06133 -10.89052,-5.8609 0.83926,-2.6033 2.26132,-2.91082 13.46039,-2.91082 12.36681,0 12.52197,-0.0454 12.52197,-3.65489 v -3.65489 h -20.49095 -20.49094 l -1.79359,4.88326 c -2.10938,5.74306 -1.10827,12.11032 2.61195,16.61277 2.23226,2.70163 4.43002,3.29154 13.61674,3.65488 10.72222,0.4241 10.96483,0.51867 11.42472,4.45368 l 0.46985,4.02037 h -14.20561 c -14.16271,0 -14.20563,0.0111 -14.20563,3.65488 v 3.65488 h 19.74979 c 13.38102,0 20.32443,-0.56573 21.53174,-1.75434 z m 37.55974,15.92589 c -9.81619,-3.38628 -11.21498,-7.21235 -11.76546,-32.18191 -0.57242,-25.96532 0.69803,-31.98895 7.62366,-36.1464 4.31453,-2.59 7.64648,-2.84903 36.71236,-2.85399 43.73282,-0.008 43.02264,-0.60593 43.02264,36.25461 0,21.7889 -0.21287,23.55938 -3.39255,28.21521 -5.05436,7.40087 -10.10301,8.45741 -40.41338,8.45741 -16.89385,0 -28.59026,-0.64206 -31.78727,-1.74493 z m 50.25606,-16.62525 c 1.60093,-1.34955 2.57148,-2.99425 2.15677,-3.65489 -0.41474,-0.66065 0.28772,-1.20117 1.56101,-1.20117 1.92529,0 2.31505,-2.21524 2.31505,-13.1576 0,-10.94236 -0.38976,-13.15758 -2.31505,-13.15758 -1.27329,0 -1.97575,-0.54052 -1.56101,-1.20117 0.41471,-0.66065 -0.55584,-2.30534 -2.15677,-3.6549 -2.388,-2.01302 -6.24151,-2.45371 -21.45565,-2.45371 h -18.54486 v 20.46736 20.46736 h 18.54486 c 15.21414,0 19.06765,-0.44067 21.45565,-2.4537 z m -22.18115,-18.01366 c 0,-11.34521 0.10591,-11.69563 3.53608,-11.69563 2.94492,0 3.81379,1.08585 5.19733,6.4952 2.05743,8.04435 2.12036,12.51022 0.17627,12.51022 -0.81672,0 -1.48495,0.98681 -1.48495,2.19293 0,1.36448 -1.40244,2.19293 -3.71237,2.19293 -3.65048,0 -3.71236,-0.19493 -3.71236,-11.69565 z M 99.575426,111.54893 c -1.724815,-0.70844 -4.564776,-3.07631 -6.311029,-5.26192 -2.959128,-3.70368 -3.174988,-5.65508 -3.174988,-28.702528 0,-37.891145 -0.171645,-37.74106 43.162581,-37.74106 43.01948,0 42.96433,-0.04866 42.96433,37.915145 v 24.902773 l -4.33029,4.77442 -4.33025,4.77442 -32.42218,0.31341 c -17.83218,0.17238 -33.83335,-0.26622 -35.558174,-0.97466 z m 28.601354,-21.195624 4.97609,-5.044365 4.97608,5.044365 c 4.26676,4.325321 5.96016,5.044382 11.87958,5.044382 h 6.90348 V 77.854233 60.310782 h -7.42473 -7.42473 v 8.771725 c 0,4.873188 -0.65998,8.771726 -1.48496,8.771726 -0.81671,0 -1.48494,-0.704863 -1.48494,-1.566378 0,-2.071652 -3.7973,-5.743386 -5.93978,-5.743386 -2.14249,0 -5.9398,3.671734 -5.9398,5.743386 0,0.861515 -0.66822,1.566378 -1.48494,1.566378 -0.82497,0 -1.48495,-3.898538 -1.48495,-8.771726 v -8.771725 h -7.42473 -7.42474 v 17.543451 17.543455 h 6.9035 c 5.9194,0 7.61283,-0.719061 11.87957,-5.044382 z"
       id="path50" />
  </g>
</svg>
